<svg xmlns="http://www.w3.org/2000/svg" viewBox="0 0 500 500" width="500" height="500" preserveAspectRatio="xMidYMid meet" style="width: 100%; height: 100%; transform: translate3d(0px, 0px, 0px);">
    <defs>
        <clipPath id="__lottie_element_79">
            <rect width="500" height="500" x="0" y="0"></rect>
        </clipPath>
        <clipPath id="__lottie_element_87">
            <path d="M0,0 L500,0 L500,500 L0,500z"></path>
        </clipPath>
        <clipPath id="__lottie_element_109">
            <path d="M0,0 L500,0 L500,500 L0,500z"></path>
        </clipPath>
        <clipPath id="__lottie_element_117">
            <path d="M0,0 L500,0 L500,500 L0,500z"></path>
        </clipPath>
        <clipPath id="__lottie_element_125">
            <path d="M0,0 L500,0 L500,500 L0,500z"></path>
        </clipPath>
    </defs>
    <g clip-path="url(#__lottie_element_79)">
        <g clip-path="url(#__lottie_element_87)" transform="matrix(1,0,0,1,0,0)" opacity="1" style="display: block;">
            <g clip-path="url(#__lottie_element_125)" transform="matrix(0.07194843143224716,0,0,1,224.58848571777344,0)" opacity="1" style="display: none;">
                <g transform="matrix(2.380000114440918,0,0,2.380000114440918,249.4322052001953,248.8677978515625)" opacity="1" style="display: block;">
                    <g opacity="1" transform="matrix(1,0,0,1,0,0)">
                        <path stroke-linecap="round" stroke-linejoin="round" fill-opacity="0" stroke="rgb(189,189,189)" stroke-opacity="1" stroke-width="8.96" d=" M0,-36.83300018310547 C0,-36.83300018310547 -19.5,0 -19.5,0 C-19.5,0 0.16699999570846558,36.66699981689453 0.16699999570846558,36.66699981689453 C0.16699999570846558,36.66699981689453 18.66699981689453,-0.16699999570846558 18.66699981689453,-0.16699999570846558 C18.66699981689453,-0.16699999570846558 0,-36.83300018310547 0,-36.83300018310547z M-19.33300018310547,0 C-19.33300018310547,0 0.16699999570846558,6.833000183105469 0.16699999570846558,6.833000183105469 C0.16699999570846558,6.833000183105469 18.5,0 18.5,0"></path>
                    </g>
                </g>
            </g>
            <g clip-path="url(#__lottie_element_117)" style="display: none;" transform="matrix(0,0,0,1,250.00799560546875,0)" opacity="1">
                <g transform="matrix(2.380000114440918,0,0,2.380000114440918,249.4322052001953,248.8677978515625)" opacity="1" style="display: block;">
                    <g opacity="1" transform="matrix(1,0,0,1,0,0)">
                        <path stroke-linecap="round" stroke-linejoin="round" fill-opacity="0" stroke="rgb(189,189,189)" stroke-opacity="1" stroke-width="8.96" d=" M0,-36.83300018310547 C0,-36.83300018310547 -19.5,0 -19.5,0 C-19.5,0 0.16699999570846558,36.66699981689453 0.16699999570846558,36.66699981689453 C0.16699999570846558,36.66699981689453 18.66699981689453,-0.16699999570846558 18.66699981689453,-0.16699999570846558 C18.66699981689453,-0.16699999570846558 0,-36.83300018310547 0,-36.83300018310547z M-19.33300018310547,0 C-19.33300018310547,0 0.16699999570846558,6.833000183105469 0.16699999570846558,6.833000183105469 C0.16699999570846558,6.833000183105469 18.5,0 18.5,0"></path>
                    </g>
                </g>
            </g>
            <g clip-path="url(#__lottie_element_109)" style="display: block;" transform="matrix(0.9702319502830505,0,0,1,7.2038726806640625,0)" opacity="1">
                <g transform="matrix(2.380000114440918,0,0,2.380000114440918,249.4322052001953,248.8677978515625)" opacity="1" style="display: block;">
                    <g opacity="1" transform="matrix(1,0,0,1,0,0)">
                        <path stroke-linecap="round" stroke-linejoin="round" fill-opacity="0" stroke="rgb(189,189,189)" stroke-opacity="1" stroke-width="8.96" d=" M0,-36.83300018310547 C0,-36.83300018310547 -19.5,0 -19.5,0 C-19.5,0 0.16699999570846558,36.66699981689453 0.16699999570846558,36.66699981689453 C0.16699999570846558,36.66699981689453 18.66699981689453,-0.16699999570846558 18.66699981689453,-0.16699999570846558 C18.66699981689453,-0.16699999570846558 0,-36.83300018310547 0,-36.83300018310547z M-19.33300018310547,0 C-19.33300018310547,0 0.16699999570846558,6.833000183105469 0.16699999570846558,6.833000183105469 C0.16699999570846558,6.833000183105469 18.5,0 18.5,0"></path>
                    </g>
                </g>
            </g>
            <g transform="matrix(17.60993003845215,0,0,17.60993003845215,178.48529052734375,187.29025268554688)" opacity="1" style="display: none;">
                <g opacity="1" transform="matrix(1,0,0,1,0,0)">
                    <path stroke-linecap="butt" stroke-linejoin="miter" fill-opacity="0" stroke-miterlimit="4" stroke="rgb(189,189,189)" stroke-opacity="1" stroke-width="1.12" d=" M3.621234178543091,-4.142631530761719 C7.095948219299316,-4.142631530761719 9.912659645080566,-0.722245454788208 9.912659645080566,3.4970176219940186 C9.912659645080566,7.716280460357666 7.095948219299316,11.136666297912598 3.621234178543091,11.136666297912598 C0.1465204507112503,11.136666297912598 -2.6701910495758057,7.716280460357666 -2.6701910495758057,3.4970176219940186 C-2.6701910495758057,-0.722245454788208 0.1465204507112503,-4.142631530761719 3.621234178543091,-4.142631530761719z"></path>
                </g>
            </g>
            <g transform="matrix(17.60993003845215,0,0,17.60993003845215,178.48529052734375,187.29025268554688)" opacity="1" style="display: none;">
                <g opacity="1" transform="matrix(1,0,0,1,0,0)">
                    <path stroke-linecap="butt" stroke-linejoin="miter" fill-opacity="0" stroke-miterlimit="4" stroke="rgb(125,125,125)" stroke-opacity="1" stroke-width="1.12" d=" M3.9549999237060547,14 C8.732999801635742,14 12.605999946594238,9.298999786376953 12.605999946594238,3.5 C12.605977058410645,-2.2990000247955322 8.732998847961426,-7 3.9554734230041504,-7"></path>
                </g>
                <g opacity="1" transform="matrix(1,0,0,1,0,0)">
                    <path stroke-linecap="round" stroke-linejoin="round" fill-opacity="0" stroke="rgb(125,125,125)" stroke-opacity="1" stroke-width="1.12" d=" M9.810160636901855,-4.130000114440918 C9.810160636901855,-4.130000114440918 9.467394828796387,-4.130000114440918 9.467394828796387,-4.130000114440918 M11.798185348510742,-0.7829999923706055 C11.798185348510742,-0.7829999923706055 11.455419540405273,-0.7829999923706055 11.455419540405273,-0.7829999923706055 M12.480924606323242,2.059999942779541 C12.480924606323242,2.059999942779541 12.138158798217773,2.059999942779541 12.138158798217773,2.059999942779541 M12.480924606323242,4.940000057220459 C12.480924606323242,4.940000057220459 12.138158798217773,4.940000057220459 12.138158798217773,4.940000057220459 M11.798185348510742,7.7829999923706055 C11.798185348510742,7.7829999923706055 11.455419540405273,7.7829999923706055 11.455419540405273,7.7829999923706055 M9.958581924438477,10.986000061035156 C9.958581924438477,10.986000061035156 9.615816116333008,10.986000061035156 9.615816116333008,10.986000061035156 M4.013999938964844,13.972999572753906 C4.013999938964844,13.972999572753906 3.6572341918945312,13.972999572753906 3.6572341918945312,13.972999572753906 M4.015999794006348,-6.991000175476074 C4.015999794006348,-6.991000175476074 3.623058795928955,-6.991000175476074 3.623058795928955,-6.991000175476074"></path>
                </g>
            </g>
            <g transform="matrix(17.60993003845215,0,0,17.60993003845215,178.48529052734375,187.29025268554688)" opacity="1" style="display: none;">
                <g opacity="1" transform="matrix(1,0,0,1,0,0)">
                    <path stroke-linecap="butt" stroke-linejoin="miter" fill-opacity="0" stroke-miterlimit="4" stroke="rgb(125,125,125)" stroke-opacity="1" stroke-width="1.12" d=" M3.591549873352051,-7.0029826164245605 C8.36082935333252,-7.0029826164245605 12.227210998535156,-2.3019824028015137 12.227210998535156,3.4970176219940186 C12.227210998535156,9.29601764678955 8.36082935333252,13.997017860412598 3.591549873352051,13.997017860412598 C-1.1777297258377075,13.997017860412598 -5.044111728668213,9.29601764678955 -5.044111728668213,3.4970176219940186 C-5.044111728668213,-2.3019824028015137 -1.1777297258377075,-7.0029826164245605 3.591549873352051,-7.0029826164245605z"></path>
                </g>
            </g>
            <g transform="matrix(17.60993003845215,0,0,17.60993003845215,178.48529052734375,187.29025268554688)" opacity="1" style="display: block;">
                <g opacity="1" transform="matrix(1,0,0,1,0,0)">
                    <path stroke-linecap="butt" stroke-linejoin="miter" fill-opacity="0" stroke-miterlimit="4" stroke="rgb(125,125,125)" stroke-opacity="1" stroke-width="1.12" d=" M3.947999954223633,14 C9.559000015258789,14 14.107000350952148,9.298999786376953 14.107000350952148,3.5 C14.107020378112793,-2.2990000247955322 9.55852222442627,-7 3.947707176208496,-7"></path>
                </g>
                <g opacity="1" transform="matrix(1,0,0,1,0,0)">
                    <path stroke-linecap="round" stroke-linejoin="round" fill-opacity="0" stroke="rgb(125,125,125)" stroke-opacity="1" stroke-width="1.12" d=" M10.829840660095215,-4.130000114440918 C10.829840660095215,-4.130000114440918 10.79758071899414,-4.130000114440918 10.79758071899414,-4.130000114440918 M13.164612770080566,-0.7829999923706055 C13.164612770080566,-0.7829999923706055 13.132353782653809,-0.7829999923706055 13.132353782653809,-0.7829999923706055 M13.966434478759766,2.059999942779541 C13.966434478759766,2.059999942779541 13.934175491333008,2.059999942779541 13.934175491333008,2.059999942779541 M13.966434478759766,4.940000057220459 C13.966434478759766,4.940000057220459 13.934175491333008,4.940000057220459 13.934175491333008,4.940000057220459 M13.164612770080566,7.7829999923706055 C13.164612770080566,7.7829999923706055 13.132353782653809,7.7829999923706055 13.132353782653809,7.7829999923706055 M11.004149436950684,10.986000061035156 C11.004149436950684,10.986000061035156 10.97188949584961,10.986000061035156 10.97188949584961,10.986000061035156 M4.013999938964844,13.972999572753906 C4.013999938964844,13.972999572753906 3.967740297317505,13.972999572753906 3.967740297317505,13.972999572753906 M4.015999794006348,-6.991000175476074 C4.015999794006348,-6.991000175476074 3.933708667755127,-6.991000175476074 3.933708667755127,-6.991000175476074"></path>
                </g>
            </g>
            <g transform="matrix(17.60993003845215,0,0,17.60993003845215,178.48529052734375,187.29025268554688)" opacity="1" style="display: block;">
                <g opacity="1" transform="matrix(1,0,0,1,0,0)">
                    <path stroke-linecap="butt" stroke-linejoin="miter" fill-opacity="0" stroke-miterlimit="4" stroke="rgb(125,125,125)" stroke-opacity="1" stroke-width="1.12" d=" M3.896878480911255,-7.000537395477295 C9.49800968170166,-7.000537395477295 14.038761138916016,-2.299537420272827 14.038761138916016,3.499462604522705 C14.038761138916016,9.298462867736816 9.49800968170166,13.999462127685547 3.896878480911255,13.999462127685547 C-1.7042526006698608,13.999462127685547 -6.245003700256348,9.298462867736816 -6.245003700256348,3.499462604522705 C-6.245003700256348,-2.299537420272827 -1.7042526006698608,-7.000537395477295 3.896878480911255,-7.000537395477295z"></path>
                </g>
            </g>
            <g transform="matrix(17.60993003845215,0,0,17.60993003845215,178.48529052734375,187.29025268554688)" opacity="1" style="display: block;">
                <g opacity="1" transform="matrix(1,0,0,1,0,0)">
                    <path stroke-linecap="butt" stroke-linejoin="miter" fill-opacity="0" stroke-miterlimit="4" stroke="rgb(189,189,189)" stroke-opacity="1" stroke-width="1.12" d=" M3.9317402839660645,-4.131644248962402 C8.0125093460083,-4.131644248962402 11.318263053894043,-0.7152014374732971 11.318263053894043,3.4997470378875732 C11.318263053894043,7.714695453643799 8.010232925415039,11.131454467773438 3.9294638633728027,11.131454467773438 C-0.15130481123924255,11.131454467773438 -3.459303379058838,7.714695453643799 -3.459303379058838,3.4997470378875732 C-3.459303379058838,-0.7152014374732971 -0.14902843534946442,-4.131644248962402 3.9317402839660645,-4.131644248962402z"></path>
                </g>
            </g>
        </g>
        <g class="com" style="display: none;">
            <g>
                <path></path>
            </g>
            <g>
                <path></path>
            </g>
            <g>
                <path></path>
            </g>
            <g>
                <path></path>
            </g>
            <g>
                <path></path>
            </g>
            <g>
                <path></path>
            </g>
            <g>
                <path></path>
            </g>
            <g>
                <path></path>
            </g>
            <g>
                <path></path>
            </g>
            <g>
                <path></path>
            </g>
            <g>
                <path></path>
            </g>
            <g>
                <path></path>
            </g>
        </g>
    </g>
</svg>